<?xml version="1.0" encoding="utf-8"?>
<svg viewBox="0 0 173 173" xmlns="http://www.w3.org/2000/svg">
    <defs>
        <radialGradient gradientUnits="userSpaceOnUse" cx="86.5" cy="90.774" r="79.226" id="gradient-0" spreadMethod="pad" gradientTransform="matrix(1.091813, 0, 0, 1.091813, -7.941854, -12.608267)">
            <stop offset="0" style="stop-color: rgb(255, 255, 255);"/>
            <stop offset="0.666" style="stop-color: rgb(212, 212, 212); stop-opacity: 0.7;"/>
            <stop offset="1" style="stop-color: rgb(160, 160, 160); stop-opacity: 0.4;"/>
        </radialGradient>
    </defs>
    <ellipse style="fill: url('#gradient-0');" cx="86.5" cy="86.5" rx="86.5" ry="86.5" transform="matrix(1, 0, 0, 1, 2.842170943040401e-14, 3.552713678800501e-15)"/>
    <g style="" transform="matrix(1.0261399745941162, 0, 0, 1.0261399745941162, -2.319005012512193, -2.388916969299313)">
        <path fill="#eec6af" d="M 85 167 C 80.975 167 76.95 167 72.501 166.627 C 73.393 162.801 74.709 159.347 76.415 155.937 C 79.193 156.685 81.58 157.39 84.105 158.39 C 85.186 160.091 86.129 161.497 86.861 163.175 C 86.1 164.631 85.55 165.816 84.999 167 L 85 167 Z"/>
        <path fill="#a76656" d="M 87.072 162.903 C 86.129 161.496 85.186 160.09 84.288 158.15 C 84.886 157.408 85.439 157.198 86.393 156.998 C 91.227 158.012 95.661 159.018 99.933 160.357 C 99.181 162.793 98.59 164.896 98 166.999 C 97.25 166.999 96.5 166.999 95.249 166.694 C 92.769 163.951 90.737 161.63 87.072 162.902 L 87.072 162.903 Z"/>
        <path fill="#e8bba4" d="M 76.025 155.894 L 72.038 166.627 C 71.25 167 70.302 166.191 69.035 165.909 L 66.903 165.034 C 66.619 164.868 66.336 164.701 66.227 164.042 C 68.276 160.33 70.151 157.112 72.368 153.937 C 73.816 154.618 74.92 155.257 76.025 155.895 L 76.025 155.894 Z"/>
        <path fill="#261b19" d="M 98.444 167 C 98.591 164.897 99.182 162.794 100.265 160.346 C 101.794 159.689 102.83 159.376 104.024 159.364 L 107.115 164.921 C 106.76 165.407 101.26 166.998 98.445 166.998 L 98.444 167 Z"/>
        <path fill="#e4b49f" d="M 86.862 163.175 C 90.737 161.632 92.769 163.952 94.874 166.696 C 91.97 167.001 88.939 167.001 85.455 167.001 C 85.551 165.816 86.102 164.632 86.862 163.176 L 86.862 163.175 Z"/>
        <path fill="#130907" d="M 55.884 131.043 C 53.919 127.615 51.954 124.187 50.072 120.042 C 50.398 116.862 50.642 114.399 51.18 112.099 C 52.579 113.762 53.872 115.512 55.05 117.338 C 59.985 122.056 64.812 126.48 69.71 130.822 C 76.108 136.494 84.317 134.097 91.653 135.579 C 96.167 136.491 99.913 134.6 103.22 131.517 C 107.067 127.932 111.077 124.523 115.274 120.826 L 121.836 117.026 C 123.209 119.755 123.159 121.887 120.553 124.252 C 119.249 125.436 119.315 128.274 119.038 130.401 C 118.768 132.474 118.851 134.594 118.064 136.872 C 115.567 137.369 113.784 137.687 111.747 137.766 C 105.475 137.922 101 140.77 97.646 145.996 C 95.863 145.707 94.45 145.415 92.887 144.788 C 90.907 141.031 81.838 136.902 78.395 138.292 C 77.567 138.626 77.448 140.716 76.634 142.057 C 71.836 144.42 69.189 141.434 67.176 138.465 C 64.354 134.304 60.469 132.265 55.885 131.044 L 55.884 131.043 Z"/>
        <path fill="#110a08" d="M 132.11 46.043 C 132.071 49.15 132.559 52.389 131.827 55.323 C 131.246 57.651 129.172 59.607 127.167 61.88 C 126.389 62.042 126.204 62.051 125.848 61.749 L 117.033 57.711 C 116.244 56.664 115.588 55.894 114.998 54.741 C 115.371 50.896 115.676 47.434 116.299 44.12 C 118.187 43.66 120.057 43.404 121.27 42.375 C 124.334 39.776 127.102 36.828 129.991 34.469 L 132.11 46.044 L 132.11 46.043 Z"/>
        <path fill="#371e18" d="M 121.914 116.657 C 119.734 118.223 117.632 119.419 115.125 120.547 C 114.134 119.614 113.548 118.749 113.094 117.583 L 117.421 111.882 L 120.43 106.055 L 125.883 104.07 L 121.915 116.656 L 121.914 116.657 Z"/>
        <path fill="#df8e82" d="M 131.876 80.957 C 135.228 85.895 134.65 90.702 129.432 95.047 C 127.801 95.073 126.928 95.037 126.037 94.547 C 126.034 91.356 126.048 88.618 126.38 85.823 C 128.424 84.162 130.15 82.559 131.876 80.957 Z"/>
        <path fill="#170806" d="M 131.933 80.555 C 130.15 82.559 128.424 84.162 126.251 85.528 C 124.558 83.863 123.311 82.436 122.38 80.884 L 126.268 74.969 L 130.125 73.938 L 131.933 80.556 L 131.933 80.555 Z"/>
        <path fill="#d49185" d="M 126.054 95.001 L 129.115 95.17 C 128.438 97.961 127.319 100.69 126.042 103.746 C 124.183 104.714 122.483 105.356 120.285 105.775 C 119.174 104.695 118.562 103.838 118.109 102.715 C 119.189 101.652 120.109 100.855 121.367 99.993 C 123.154 98.287 124.605 96.644 126.055 95.002 L 126.054 95.001 Z"/>
        <path fill="#1a0f0e" d="M 132.487 46.016 C 131.405 42.335 130.699 38.626 130.259 34.339 C 131.053 33.491 131.582 33.221 132.111 32.951 C 132.718 33.45 133.324 33.948 134.047 34.723 C 134.646 38.771 136.428 42.696 132.486 46.015 L 132.487 46.016 Z"/>
        <path fill="#30201e" d="M 130.076 73.568 C 128.96 74.264 127.794 74.592 125.985 74.85 C 124.561 74.132 123.78 73.483 122.998 72.633 C 122.998 72.433 122.995 72.033 123.285 71.867 L 128.033 65.9 C 131.574 67.547 129.846 70.634 130.075 73.568 L 130.076 73.568 Z"/>
        <path fill="#2d1919" d="M 112.003 138.005 L 117.744 137.061 C 118.218 137.664 118.296 138.258 118.664 139.357 C 118.633 141.238 118.314 142.616 117.75 144.002 C 117.505 144.011 117.016 144.03 116.765 143.781 L 110.996 141.64 L 112.003 138.005 Z"/>
        <path fill="#433433" d="M 128.021 65.561 C 126.548 67.833 125.062 69.767 123.039 71.582 C 122.317 69.955 122.132 68.446 122.119 66.661 L 126.02 62.06 L 126.851 62.055 C 127.421 63.125 127.714 64.174 128.021 65.561 Z"/>
        <path fill="#62515a" d="M 131.091 154.144 C 130.593 154.447 130.096 154.75 129.265 154.723 C 128.238 153.282 127.544 152.172 126.896 150.626 L 127.145 145.816 C 128.682 146.645 130.218 147.474 131.743 148.967 L 131.09 154.144 L 131.091 154.144 Z"/>
        <path fill="#302226" d="M 126.969 145.551 C 127.101 147.246 126.971 148.951 126.584 150.607 C 125.809 151.015 125.391 151.006 124.687 150.835 C 123.636 149.151 122.871 147.629 122.351 145.939 C 123.07 145.151 123.544 144.532 124.019 143.912 L 126.969 145.551 Z"/>
        <path fill="#493b46" d="M 131.443 154.098 C 131.304 152.639 131.517 151.135 131.877 149.278 C 133.612 149.398 135.2 149.871 136.896 150.654 C 135.267 151.993 133.532 153.023 131.443 154.098 Z"/>
        <path d="M 124.001 143.559 C 123.545 144.531 123.071 145.151 122.019 145.874 C 120.293 145.316 119.143 144.654 117.994 143.993 L 118.939 139.503 C 120.611 140.499 122.297 141.853 124.001 143.559 Z" fill="#62515a"/>
        <path d="M 124.285 158.062 C 120.789 159.706 117.293 161.349 113.133 162.812 C 111.645 160.757 110.821 158.883 110.144 156.705 L 115.051 148.746 C 115.827 148.321 116.409 148.137 117.126 148.255 C 119.75 151.168 118.391 156.775 123.967 157.31 C 124.133 157.732 124.209 157.897 124.284 158.062 L 124.285 158.062 Z" fill="#62515a"/>
        <path fill="#8f869a" d="M 109.997 157.008 L 112.752 162.821 C 111.308 163.669 109.582 164.326 107.485 164.953 C 106.136 163.171 105.158 161.419 104.168 159.074 C 104.463 157.68 104.771 156.878 105.321 156.026 C 105.564 155.975 106.044 155.848 106.39 155.905 L 109.997 157.008 Z"/>
        <path fill="#1a0f0e" d="M 124.625 158.037 C 124.21 157.897 124.134 157.732 124.045 156.975 L 124.975 150.997 L 126.539 151.043 C 127.545 152.172 128.239 153.283 128.96 154.726 C 127.646 156.043 126.306 157.028 124.626 158.037 L 124.625 158.037 Z"/>
        <path fill="#e4b49f" d="M 72.025 153.893 L 66.15 163.797 C 65.164 164.024 64.431 164.001 63.329 163.531 C 62.625 161.372 62.288 159.661 61.987 157.598 C 63.376 155.535 64.731 153.823 66.455 152.074 L 72.025 153.893 Z"/>
        <path fill="#756d88" d="M 44.101 156.405 C 47.355 154.092 50.801 152.067 54.869 150.097 C 55.71 150.42 55.929 150.687 56.101 151.298 C 56.383 152.709 56.713 153.778 56.697 154.926 C 54.86 156.703 53.368 158.402 51.877 160.1 C 49.349 158.964 46.822 157.829 44.101 156.405 Z"/>
        <path fill="#e0dee4" d="M 52.061 160.427 C 53.368 158.402 54.86 156.704 56.997 155.073 C 59.079 156.077 60.516 157.013 61.953 157.95 L 62.97 163.459 C 59.401 162.808 55.823 161.781 52.061 160.428 L 52.061 160.427 Z"/>
        <path fill="#87473a" d="M 72.368 153.936 L 66.273 151.83 C 64.873 151.09 64.024 150.557 63.142 149.658 L 62.45 141.093 C 63.838 141.564 65.043 141.838 65.883 142.546 C 72.588 148.189 80.176 150.961 89.131 150.242 C 90.176 151.338 91.085 152.155 91.996 153.222 C 92 153.64 92.001 153.808 91.653 154.031 C 89.533 155.055 87.763 156.022 85.993 156.99 C 85.44 157.199 84.887 157.409 84.151 157.857 C 81.581 157.391 79.193 156.685 76.416 155.937 C 74.922 155.256 73.817 154.617 72.369 153.936 L 72.368 153.936 Z"/>
        <path fill="#995849" d="M 86.393 156.998 C 87.763 156.022 89.533 155.054 92.05 154.036 C 97.148 153.174 101.656 151.435 105.078 156.076 L 104.011 158.772 C 102.829 159.376 101.793 159.689 100.425 160.013 L 86.392 156.998 L 86.393 156.998 Z"/>
        <path fill="#261b19" d="M 47.884 46.949 C 48.261 43.591 48.637 40.233 49.414 36.432 C 52.709 34.086 55.779 32.293 54.913 27.627 C 55.032 25.528 55.075 23.785 55.117 22.041 C 56.522 20.414 57.926 18.787 59.846 17.286 C 61.578 17.947 62.795 18.482 64.008 19.417 L 64.985 30.392 C 64.085 34.608 62.784 38.639 69.126 39.304 C 69.521 40.437 69.777 41.271 69.921 42.394 C 68.912 43.139 68.014 43.594 66.81 43.918 C 65.099 44.232 63.562 44.449 62.315 45.168 C 59.147 46.995 56.108 49.046 52.85 50.724 C 51.083 49.276 49.484 48.112 47.884 46.948 L 47.884 46.949 Z"/>
        <path fill="#241a18" d="M 80.051 8.88 C 80.543 8.914 81.168 9.162 81.507 8.951 C 90.572 3.307 98.661 7.686 106.819 11.365 C 107.982 11.889 109.123 12.46 110.576 13.446 C 109.428 15.215 108.161 16.894 106.476 17.779 C 104.878 18.619 102.843 18.626 100.566 19.001 C 96.427 19.343 92.722 19.683 88.857 19.69 C 86.125 13.626 80.975 16.852 76.993 15.644 C 76.655 14.194 76.325 13.093 76.225 11.759 C 77.653 10.644 78.852 9.762 80.051 8.88 Z"/>
        <path fill="#241917" d="M 132.163 32.624 C 131.583 33.222 131.054 33.492 130.257 33.891 C 127.102 36.828 124.334 39.776 121.271 42.375 C 120.058 43.404 118.188 43.66 116.306 43.707 C 115.329 36.763 114.665 30.38 114.142 23.693 L 119.053 16.886 C 119.976 17.694 120.898 18.503 121.871 19.965 C 121.553 21.538 121.095 22.433 120.837 23.382 C 120.429 24.885 120.155 26.423 119.824 27.947 C 121.546 28.279 123.269 28.879 124.989 28.871 C 126.939 28.862 128.886 28.308 130.835 27.991 C 131.295 29.426 131.755 30.862 132.163 32.624 Z"/>
        <path fill="#170806" d="M 88.995 149.962 C 80.177 150.96 72.588 148.188 65.884 142.545 C 65.044 141.838 63.839 141.563 62.174 140.954 C 60.996 140.537 60.447 140.255 59.899 139.972 L 55.939 131.405 C 60.469 132.263 64.354 134.303 67.176 138.464 C 69.19 141.433 71.837 144.419 77.008 142.116 C 82.176 143.442 86.601 144.766 90.985 146.405 C 90.295 147.801 89.645 148.881 88.996 149.962 L 88.995 149.962 Z"/>
        <path d="M 119.021 16.511 C 117.463 19.054 115.873 21.221 113.794 23.638 C 109.902 23.073 107.306 17.875 102.743 21.982 C 102.321 21.96 102.153 21.945 101.947 21.621 C 101.606 20.541 101.303 19.77 101 18.999 C 102.843 18.626 104.878 18.618 106.476 17.779 C 108.16 16.894 109.428 15.215 110.944 13.531 C 114.123 12.944 117.475 12.06 119.021 16.511 Z" fill="#1a0f0e"/>
        <path d="M 130.904 27.637 C 128.886 28.307 126.939 28.861 124.989 28.87 C 123.269 28.878 121.546 28.278 119.824 27.946 L 120.837 23.381 C 121.095 22.432 121.553 21.538 121.979 20.255 C 125.016 22.355 127.995 24.819 130.905 27.637 L 130.904 27.637 Z" fill="#1a0f0e"/>
        <path d="M 79.854 8.542 C 78.852 9.762 77.653 10.644 75.92 11.905 C 72.924 14.185 70.461 16.087 67.658 18.038 C 66.437 18.345 65.222 18.672 64.012 19.019 C 62.795 18.484 61.578 17.948 60.151 17.151 C 61.624 15.109 62.996 12.46 65.051 11.725999999999999 C 69.742 10.053 74.767 9.319 79.854 8.541 L 79.854 8.542 Z" fill="#1a0f0e"/>
        <path fill="#32211e" d="M 59.584 140.096 C 60.447 140.255 60.995 140.538 61.821 140.958 C 62.435 143.828 62.772 146.559 62.735 149.66 C 60.29 150.338 58.219 150.646 56.148 150.955 C 55.929 150.687 55.71 150.42 55.241 150.069 C 54.456 145.872 56.415 142.85 59.583 140.095 L 59.584 140.096 Z"/>
        <path fill="#32201a" d="M 112.963 117.884 L 114.869 120.758 C 111.077 124.523 107.067 127.931 103.22 131.517 C 99.913 134.599 96.167 136.491 91.653 135.579 C 84.317 134.096 76.108 136.494 69.71 130.822 C 64.812 126.48 59.986 122.056 55.377 117.29 C 56.433 116.236 57.239 115.561 58.354 115.033 C 60.086 115.829 61.508 116.478 62.965 117.452 C 63.969 118.861 64.938 119.945 66.04 121.349 C 67.114 122.754 68.071 123.827 68.996 124.927 C 72.938 129.612 75.448 130.163 79.468 127.062 C 84.249 127.715 88.6 128.417 93.16 129.464 C 100.654 130.245 101.634 129.629 104.426 123.082 C 104.864 122.055 105.532 121.126 106.473 120.107 C 108.889 119.336 110.926 118.61 112.963 117.884 Z"/>
        <path fill="#341f19" d="M 58.045 114.886 C 57.239 115.561 56.433 116.237 55.3 116.96 C 53.807 115.426 52.64 113.843 51.18 112.099 C 49.932 108.889 48.977 105.84 48.457 102.381 C 50.301 101.635 51.71 101.3 53.409 101.112 C 54.095 102.19 54.491 103.121 54.933 104.412 C 55.942 106.537 56.905 108.302 57.91 110.39 L 58.044 114.886 L 58.045 114.886 Z"/>
        <path fill="#0a0503" d="M 91.025 146.09 L 77.377 142.057 C 77.448 140.715 77.567 138.625 78.395 138.291 C 81.838 136.901 90.907 141.03 92.705 145.013 C 92.124 145.745 91.575 145.918 91.025 146.09 Z"/>
        <path fill="#220d0a" d="M 111.747 137.767 C 111.671 139.1 111.34 140.196 110.753 141.64 C 110.519 141.954 110.068 142.006 109.769 141.753 C 105.951 140.935 103.962 142.684 102.661 146.066 C 100.928 146.393 99.537 146.605 98.114 146.61 L 98.015 145.993 C 100.999 140.771 105.475 137.924 111.747 137.767 Z"/>
        <path fill="#63302b" d="M 97.646 145.997 C 98.016 145.993 98.084 146.404 97.82 146.795 L 91.994 152.971 L 89.131 150.242 C 89.644 148.882 90.293 147.801 90.984 146.406 C 91.575 145.919 92.124 145.747 92.855 145.349 C 94.45 145.416 95.863 145.709 97.646 145.997 Z"/>
        <path fill="#32211e" d="M 102.996 21.989 C 107.306 17.874 109.901 23.072 113.652 23.941 C 114.665 30.379 115.329 36.762 115.989 43.559 C 115.678 47.435 115.372 50.897 114.699 54.686 C 113.592 54.706 112.853 54.4 111.946 53.767 C 110.189 50.627 108.601 47.813 106.998 44.649 C 108.036 39.294 102.98 38.742 100.797 35.707 C 100.104 34.294 99.548 33.171 99.215 31.785 C 100.001 31.196 100.528 30.69 101.13 30.578 C 103.328 30.165 105.55 29.883 107.763 29.552 L 103.501 22.83 C 103.327 22.555 103.164 22.271 102.997 21.992 L 102.996 21.989 Z"/>
        <path fill="#1a0f0e" d="M 125.849 61.749 C 124.778 63.502 123.535 64.944 121.817 66.538 C 120.283 66.453 119.223 66.216 118.035 65.693 C 117.222 64.628 116.537 63.849 115.921 62.696 L 117.166 57.989 L 125.849 61.75 L 125.849 61.749 Z"/>
        <path fill="#ba7869" d="M 117.034 57.711 C 116.774 59.432 116.382 60.876 115.522 62.671 C 113.722 62.981 112.39 62.941 111.016 62.585 L 109.987 59.624 L 112.067 54.065 C 112.062 54.09 112.114 54.091 112.114 54.091 L 114.632 55.066 C 115.589 55.892 116.246 56.662 117.035 57.709 L 117.034 57.711 Z"/>
        <path fill="#dfb49f" d="M 113.094 117.583 C 110.926 118.61 108.889 119.336 106.472 119.722 C 106.057 116.897 106.021 114.412 106.059 111.7 C 106.315 111.188 106.576 111.022 107.304 110.98 L 113.283 110.129 L 117.118 112.045 L 113.094 117.583 Z"/>
        <path fill="#e6b09c" d="M 117.421 111.882 C 115.94 111.453 114.761 110.861 113.432 109.812 C 113.809 107.772 114.425 105.784 115.265 103.888 L 117.232 102.991 L 117.95 102.98 L 119.931 105.833 C 119.292 107.983 118.508 109.851 117.421 111.883 L 117.421 111.882 Z"/>
        <path fill="#ecae9b" d="M 126.037 94.547 C 124.604 96.644 123.154 98.286 121.357 99.562 C 120.753 96.423 119.735 93.447 120.41 90.924 C 121.493 86.882 120.664 83.833 118.11 80.768 C 118.456 80.307 118.716 80.116 119.322 80.122 C 120.434 80.505 121.25 80.756 122.065 81.007 C 123.312 82.434 124.558 83.862 125.933 85.585 C 126.047 88.618 126.033 91.355 126.037 94.546 L 126.037 94.547 Z"/>
        <path fill="#b77e6e" d="M 122.381 80.883 C 121.25 80.756 120.434 80.505 119.281 79.842 C 118.942 79.06 118.942 78.689 119.022 77.951 L 123 72.833 L 125.625 74.9 C 124.838 76.932 123.767 78.846 122.381 80.884 L 122.381 80.883 Z"/>
        <path fill="#f4b5a3" d="M 117.976 80.972 C 120.664 83.832 121.493 86.881 120.41 90.924 C 119.734 93.447 120.752 96.423 121.019 99.626 C 120.108 100.854 119.187 101.651 118.108 102.714 C 117.949 102.98 117.47 102.99 117.216 102.583 C 115.823 98.142 114.742 94.09 113.524 90.081 C 112.795 87.683 111.849 85.35 111.38 82.989 C 113.831 82.317 115.904 81.645 117.977 80.973 L 117.976 80.972 Z"/>
        <path d="M 122.999 72.633 C 121.7 74.417 120.401 76 118.642 77.884 C 115.102 76.495 112.022 74.807 108.976 72.882 C 109.009 72.646 109.904 72.726 110.303 72.743 C 114.761 72.935 118.063 72.201 118.163 65.979 L 121.644 66.813 C 122.132 68.445 122.317 69.954 122.749 71.748 C 122.996 72.032 122.998 72.433 122.999 72.633 Z" style="fill: rgb(244, 207, 187);"/>
        <path fill="#493b46" d="M 124.688 150.835 C 124.66 152.792 124.346 154.588 123.954 156.718 C 118.392 156.774 119.751 151.167 117.128 147.862 C 117.001 146.122 117.009 145.075 117.016 144.029 L 117.75 144.001 C 119.144 144.654 120.293 145.315 121.775 146.041 C 122.872 147.628 123.637 149.151 124.689 150.835 L 124.688 150.835 Z"/>
        <path fill="#32211e" d="M 116.764 143.78 C 117.008 145.076 117 146.122 116.992 147.561 C 116.409 148.137 115.827 148.32 114.663 148.749 C 111.721 148.33 109.361 147.665 107.074 146.676 L 110.012 141.981 L 110.74 141.987 L 116.764 143.78 Z"/>
        <path fill="#302226" d="M 107.001 147.001 L 114.469 148.991 C 113.335 151.459 111.813 153.93 110.144 156.704 C 108.91 156.659 107.823 156.311 106.377 155.499 C 105.661 152.713 105.304 150.391 105.143 147.841 C 105.893 147.409 106.446 147.205 107 147.001 L 107.001 147.001 Z"/>
        <path fill="#84483a" d="M 104.948 148.069 L 106.032 155.441 C 106.045 155.847 105.565 155.974 105.322 156.025 C 101.657 151.435 97.149 153.173 92.4 153.98 C 92.001 153.807 92 153.64 91.996 153.222 C 93.848 151.042 95.702 149.114 97.851 147.001 C 99.537 146.605 100.929 146.394 102.77 146.342 C 103.796 147.024 104.372 147.547 104.947 148.07 L 104.948 148.069 Z"/>
        <path fill="#63302b" d="M 56.101 151.298 C 58.219 150.647 60.29 150.338 62.768 150.027 C 64.024 150.557 64.873 151.09 65.905 151.868 C 64.732 153.824 63.377 155.536 61.988 157.599 C 60.517 157.014 59.08 156.077 57.343 154.994 C 56.714 153.779 56.384 152.71 56.102 151.299 L 56.101 151.298 Z"/>
        <path fill="#f1aa9d" d="M 42.095 84.987 L 43.389 76.352 C 46.171 74.258 48.581 72.632 50.994 71.379 L 50.947 74.362 L 49.986 79.394 C 49.645 82.198 49.322 84.601 48.64 86.948 L 42.097 84.987 L 42.095 84.987 Z"/>
        <path fill="#1a0f0e" d="M 46.067 67.933 C 45.653 65.186 45.24 62.439 45.366 59.413 C 47.642 59.436 49.378 59.738 51.076 60.448 C 50.69 63.252 50.343 65.646 49.604 68.026 L 46.067 67.932 L 46.067 67.933 Z"/>
        <path fill="#3b1c17" d="M 53.119 100.964 L 48.528 101.985 C 47.771 101.215 47.377 100.431 47.079 98.985 C 47.797 96.254 48.419 94.184 49.363 92.17 C 50.749 93.164 51.814 94.103 52.927 95.4 L 53.119 100.965 L 53.119 100.964 Z"/>
        <path fill="#1a0f0e" d="M 47.539 47.119 C 49.483 48.113 51.083 49.277 52.797 51.067 C 52.595 52.799 52.279 53.906 51.576 54.994 L 45.882 53.958 L 47.539 47.119 Z"/>
        <path fill="#150a09" d="M 45.576 54.104 C 47.652 54.297 49.421 54.636 51.627 55.285 C 52.391 56.065 52.718 56.535 53.007 57.321 C 52.351 58.438 51.733 59.239 51.115 60.04 L 45.536 59.065 C 45.201 57.413 45.235 55.832 45.575 54.104 L 45.576 54.104 Z"/>
        <path fill="#edafa2" d="M 45.755 68.12 C 47.115 67.959 48.163 67.985 49.601 68.241 C 49.991 68.471 50.04 68.897 50.142 69.168 L 50.992 71.005 L 43.431 75.947 C 43.882 73.441 44.662 70.874 45.755 68.121 L 45.755 68.12 Z"/>
        <path fill="#e4b49f" d="M 49.042 92.114 L 47.003 98.654 C 45.576 96.244 44.322 93.502 43.456 90.382 C 45.56 90.338 47.275 90.673 49.003 91.284 L 49.042 92.114 Z"/>
        <path fill="#edafa2" d="M 48.992 91.007 L 43.47 89.998 C 42.74 88.574 42.386 87.154 42.064 85.361 C 44.157 85.623 46.219 86.258 48.64 87.349 C 48.997 88.872 48.995 89.94 48.992 91.007 Z"/>
        <path d="M 67.116 44.051 L 70.306 42.352 C 72.882 42.645 74.96 43.27 77.031 44.172 C 77.016 44.633 77.009 44.817 76.659 45.055 C 73.905 48.24 71.372 51.287 69.122 54.53 C 67.245 57.234 65.7 60.168 64.007 62.618 C 64.962 58.758 64.497 55.594 61.977 52.532 C 63.71 49.467 65.413 46.759 67.117 44.05 L 67.116 44.051 Z" style="fill: rgb(228, 180, 159);"/>
        <path fill="#150a09" d="M 77.038 43.895 L 70.417 42.062 C 69.776 41.271 69.52 40.437 69.362 39.112 C 69.974 37.742 70.488 36.863 71.43 35.99 C 73.569 35.988 75.279 35.98 77.063 36.343 C 78.285 37.47 79.345 38.466 80.602 38.935 L 89.893 42.237 C 89.528 42.926 89.271 43.379 88.703 43.907 L 86.625 44.983 C 85.886 44.959 85.465 44.921 84.877 44.55 C 82.154 44.109 79.596 44.002 77.039 43.895 L 77.038 43.895 Z"/>
        <path d="M 66.809 43.919 C 65.412 46.759 63.709 49.467 61.695 52.644 C 60.872 53.721 60.358 54.331 59.474 54.96 C 57.084 55.655 55.064 56.33 53.044 57.005 C 52.717 56.535 52.39 56.065 52.013 55.303 C 52.279 53.905 52.596 52.798 52.964 51.35 C 56.107 49.047 59.146 46.995 62.314 45.168 C 63.561 44.449 65.097 44.232 66.809 43.918 L 66.809 43.919 Z" fill="#30201e"/>
        <path d="M 64.007 19.418 C 65.113 18.708 66.214 18.398 67.799 18.308 C 68.858 19.361 69.433 20.193 70.151 21.34 L 74.21 26.221 C 74.629 27.302 74.814 28.151 74.68 28.857 L 68.59 30.01 L 65 30.005 L 64.007 19.419 L 64.007 19.418 Z" fill="#30201e"/>
        <path fill="#1a0f0e" d="M 64.985 30.393 C 66.064 30.005 67.128 30.005 68.744 30.326 C 69.866 32.426 70.434 34.206 71.003 35.985 L 69.224 38.813 C 62.784 38.64 64.086 34.608 64.985 30.393 Z"/>
        <path fill="#32211e" d="M 74.999 28.999 L 74.377 25.927 C 76.777 23.151 75.69 21.072 74.051 18.688 C 75.069 17.566 76.035 16.779 77.001 15.992 C 80.975 16.852 86.125 13.625 88.654 19.929 C 87.405 21.35 86.199 22.199 84.667 23.189 C 82.543 26.214 80.745 29.097 78.628 31.937 C 77.205 30.929 76.102 29.964 74.998 28.999 L 74.999 28.999 Z"/>
        <path fill="#150a09" d="M 84.994 23.047 L 88.814 20.262 C 92.722 19.682 96.428 19.342 100.566 19 C 101.302 19.77 101.605 20.541 101.566 21.697 C 97.615 23.674 92.254 22.246 90.697 27.939 C 88.559 26.278 86.776 24.662 84.993 23.046 L 84.994 23.047 Z"/>
        <path fill="#261b19" d="M 76.993 15.644 C 76.035 16.78 75.069 17.567 73.757 18.811 C 72.278 19.853 71.144 20.439 70.01 21.025 L 68.141 18.259 C 70.462 16.087 72.924 14.185 75.691 12.137 C 76.325 13.093 76.655 14.194 76.993 15.644 Z"/>
        <path fill="#3b2826" d="M 91.052 27.985 C 92.255 22.246 97.616 23.675 101.605 22.007 C 102.153 21.945 102.321 21.96 102.743 21.982 C 103.164 22.269 103.326 22.552 103.501 22.828 L 107.763 29.55 C 105.55 29.881 103.328 30.163 101.13 30.576 C 100.529 30.689 100.001 31.194 98.848 31.718 C 95.855 30.606 93.453 29.296 91.052 27.985 Z"/>
        <path fill="#f6d8c2" d="M 105.986 111.927 L 106.093 119.767 C 105.533 121.126 104.864 122.055 104.426 123.082 C 101.635 129.629 100.654 130.245 93.156 129.047 C 92.635 125.207 92.327 122.127 92.297 118.875 C 93.059 117.773 93.543 116.843 94.37 115.943 C 96.17 115.036 97.626 114.099 99.44 113.114 L 105.986 111.927 Z"/>
        <path fill="#f4cdb9" d="M 92.019 119.047 L 92.947 128.703 C 88.601 128.418 84.25 127.715 79.423 126.735 C 78.631 125.637 78.314 124.817 78.141 123.694 C 78.849 121.947 79.414 120.503 80.315 119.038 C 81.099 118.999 81.547 118.98 82.378 118.975 L 92.018 119.047 L 92.019 119.047 Z"/>
        <path fill="#f4cfbb" d="M 77.998 123.996 L 78.993 126.784 C 75.449 130.162 72.939 129.612 68.997 124.927 C 68.072 123.827 67.115 122.754 66.365 121.178 C 67.712 117.433 68.867 114.179 70.368 110.955 C 71.832 111.613 72.95 112.241 74.054 113.22 C 74.042 114.041 74.044 114.51 73.751 115.14 C 71.585 116.882 69.11 118.288 71.209 121.295 C 72.847 123.642 74.552 126.079 77.998 123.996 Z"/>
        <path fill="#dfb49f" d="M 70.021 110.924 C 68.866 114.178 67.71 117.432 66.231 120.858 C 64.938 119.945 63.968 118.861 63.032 117.065 C 63.395 114.288 63.724 112.223 64.471 110.102 C 66.577 110.071 68.265 110.097 69.974 110.323 C 69.995 110.523 70.019 110.925 70.019 110.925 L 70.021 110.924 Z"/>
        <path fill="#c59982" d="M 64.054 110.158 L 62.999 116.739 C 61.509 116.478 60.086 115.829 58.354 115.033 C 58.014 113.494 57.983 112.103 58.344 110.372 C 60.18 110.018 61.625 110.003 63.318 110.016 L 64.054 110.158 Z"/>
        <path fill="#ecad99" d="M 53.41 101.111 C 53.072 99.227 53.025 97.491 53.282 95.388 C 54.059 95.014 54.532 95.007 55.295 95.132 L 58.139 96.196 C 58.469 96.653 58.715 96.853 59.017 97.382 C 59.357 99.509 59.685 101.253 59.632 103 L 54.888 104.05 C 54.492 103.119 54.096 102.188 53.41 101.11 L 53.41 101.111 Z"/>
        <path fill="#e6b09c" d="M 54.934 104.411 C 56.342 103.702 57.797 103.352 59.864 103.184 C 61.02 103.933 61.563 104.501 62.072 105.434 L 63.069 109.989 L 58.302 110.05 C 56.906 108.302 55.943 106.537 54.933 104.412 L 54.934 104.411 Z"/>
        <path fill="#3b1c17" d="M 105.143 147.84 C 104.371 147.546 103.796 147.023 103.111 146.225 C 103.962 142.684 105.951 140.934 109.769 141.752 C 109.057 143.437 108.102 144.894 107.074 146.676 C 106.447 147.204 105.893 147.408 105.143 147.84 Z"/>
        <path fill="#0f0706" d="M 90.697 27.94 L 98.623 31.982 C 99.547 33.17 100.103 34.293 100.354 35.707 C 96.334 36.505 92.596 37.539 88.913 37.37 C 85.244 37.202 81.63 35.828 78.126 34.693 C 78.489 33.596 78.718 32.788 78.947 31.98 C 80.745 29.097 82.543 26.214 84.667 23.19 C 86.776 24.664 88.559 26.28 90.697 27.941 L 90.697 27.94 Z"/>
        <path fill="#110a08" d="M 77.993 34.982 C 81.631 35.827 85.245 37.202 88.913 37.37 C 92.596 37.539 96.334 36.505 100.49 35.997 C 102.979 38.741 108.035 39.293 106.64 44.701 C 104.492 45.751 102.687 46.397 100.619 46.94 C 99.922 46.317 99.343 45.572 98.91 44.743 C 96.937 39.75 93.522 40.674 90 42 C 86.861 40.994 83.686 40.086 80.601 38.935 C 79.344 38.466 78.284 37.47 77.191 36.142 C 77.452 35.32 77.7 35.124 77.992 34.982 L 77.993 34.982 Z"/>
        <path fill="#1a0f0e" d="M 100.883 47.042 L 106.655 45.052 C 108.6 47.813 110.188 50.627 111.945 53.767 C 112.114 54.093 112.062 54.092 111.624 54.055 C 109.415 54.024 107.644 54.03 105.572 53.862 C 103.808 51.473 102.345 49.258 100.883 47.043 L 100.883 47.042 Z"/>
        <path d="M 118.035 65.693 C 117.337 67.686 118.781 66.785 117.39 67.068 C 114.15 67.728 107.333 68.166 107.02 68.77 C 108.402 66.585 109.73 64.743 111.058 62.9 L 115.454 63.046 C 116.538 63.848 117.222 64.627 118.035 65.692 L 118.035 65.693 Z" fill="#f7d9c5"/>
        <path d="M 111.017 62.586 C 109.73 64.743 108.402 66.586 106.665 68.727 L 99.696 72.063 L 94.701 71.889 C 90.552 72.158 86.774 72.599 82.576 73.024 C 80.75 72.998 79.345 72.988 77.963 72.616 C 75.678 70.791 73.369 69.329 71.033 67.677 C 71.006 67.488 70.958 67.11 71.116 66.767 L 77.002 45.002 L 77.032 44.172 C 79.597 44.002 82.154 44.109 84.867 44.99 C 84.421 49.506 83.452 53.239 83.355 56.994 C 83.295 59.328 83.929 63.165 85.343 63.768 C 89.262 65.44 93.759 67.04 98.322 64.133 C 102.549 65.678 103.65 63.404 104.434 60.091 C 106.556 60.005 108.258 59.994 109.96 59.983 C 110.35 60.835 110.702 61.703 111.017 62.585 L 111.017 62.586 Z" style="fill: rgb(249, 202, 183);"/>
        <path fill="#220d0a" d="M 109.987 59.625 C 108.257 59.995 106.555 60.006 104.15 59.976 C 102.982 59.303 102.517 58.672 102.391 58.015 C 103.778 56.671 104.825 55.353 105.873 54.035 L 111.629 54.029 C 111.387 55.782 110.701 57.524 109.987 59.625 Z"/>
        <path fill="#734f43" d="M 106.059 111.701 C 103.923 112.307 101.86 112.686 99.422 112.727 C 98.021 109.314 96.995 106.24 96.349 103.105 C 99.804 103.728 102.879 104.413 106.087 105.396 C 106.451 107.456 106.682 109.217 106.913 110.979 C 106.576 111.024 106.316 111.19 106.059 111.702 L 106.059 111.701 Z"/>
        <path fill="#fac2b0" d="M 107.304 110.98 C 106.682 109.216 106.451 107.454 106.228 105.089 C 107.157 102.99 108.077 101.495 109.297 100.14 L 115.012 104.005 L 113.133 109.672 C 111.221 110.321 109.458 110.652 107.304 110.98 Z"/>
        <path fill="#fbc0ad" d="M 115.265 103.888 C 113.207 102.763 111.402 101.522 109.145 99.818 C 106.874 94.544 103.312 96.187 99.698 96.849 C 98.276 95.468 97.131 94.24 96.035 92.68 L 95.033 86.655 C 95.725 84.886 96.367 83.453 97.314 81.872 L 102.407 79.996 C 105.9 80.044 109.243 79.349 111.001 82.988 L 113.524 90.081 C 114.743 94.09 115.823 98.142 116.977 102.584 C 116.501 103.252 116.009 103.512 115.265 103.889 L 115.265 103.888 Z"/>
        <path d="M 111.38 82.989 C 109.244 79.349 105.9 80.044 102.413 79.573 C 102.007 77.735 102.016 76.322 102.4 74.945 L 108.943 73.118 L 118.562 78.252 C 118.942 78.69 118.943 79.06 118.985 79.71 C 118.718 80.116 118.458 80.307 118.111 80.768 C 115.904 81.644 113.832 82.317 111.38 82.988 L 111.38 82.989 Z" style="fill: rgb(197, 153, 130);"/>
        <path d="M 108.976 72.882 C 106.886 73.739 104.83 74.36 102.297 74.671 C 101.252 73.602 100.683 72.844 100.115 72.086 L 106.611 69.069 C 107.457 70.04 107.949 70.967 108.732 72.031 C 109.024 72.168 109.009 72.645 108.975 72.881 L 108.976 72.882 Z" fill="#513732"/>
        <path fill="#f3aa99" d="M 55.004 95 L 53.233 95.031 C 51.815 94.102 50.751 93.163 49.364 92.169 C 49.033 91.929 49.024 91.745 49.003 91.284 L 48.998 87.404 L 50.303 79.466 C 52.091 80.425 53.544 81.716 55.063 83.399 L 55.004 95 Z"/>
        <path fill="#edb8a4" d="M 54.996 83.005 L 50.32 79.064 C 50.298 77.57 50.595 76.147 51.367 74.363 C 54.549 73.665 57.254 73.328 60.018 73.333 L 61.011 77.37 C 61.006 78.498 61.005 79.249 60.654 80.053 L 54.996 83.006 L 54.996 83.005 Z"/>
        <path fill="#e4b49f" d="M 59.96 72.99 L 51.423 74.001 C 51 73.252 50.998 72.503 50.994 71.38 C 50.743 70.483 50.493 69.961 50.527 69.206 C 53.059 68.339 55.639 67.619 58.254 67.05 C 59.048 69.079 59.504 71.034 59.96 72.99 Z"/>
        <path fill="#6e504a" d="M 57.915 66.977 L 50.425 68.935 C 50.04 68.897 49.991 68.471 49.994 68.256 L 51.076 60.448 C 51.733 59.238 52.351 58.438 53.007 57.321 C 55.065 56.33 57.084 55.654 59.534 55.375 C 59.281 59.506 58.598 63.241 57.915 66.976 L 57.915 66.977 Z"/>
        <path d="M 64.009 66.828 L 64.005 63.384 C 65.699 60.169 67.245 57.235 69.122 54.531 C 71.373 51.288 73.906 48.241 76.659 45.056 C 75.093 52.143 73.183 59.283 70.746 66.712 C 68.148 66.943 66.079 66.886 64.009 66.829 L 64.009 66.828 Z" style="fill: rgb(250, 194, 176);"/>
        <path d="M 98.005 63.989 C 93.758 67.041 89.261 65.44 85.342 63.768 C 83.928 63.165 83.294 59.328 83.354 56.994 C 83.451 53.239 84.421 49.506 85.032 45.323 C 85.464 44.921 85.885 44.959 86.682 45.33 C 88.844 47.024 90.729 48.275 92.396 49.77 C 95.357 52.425 98.186 55.228 100.818 58.164 C 99.712 60.236 98.858 62.112 98.004 63.988 L 98.005 63.989 Z" style="fill: rgb(236, 174, 155);"/>
        <path fill="#cc8d79" d="M 101.071 57.97 L 92.396 49.771 L 87 45.317 C 87.425 44.64 87.908 44.311 89.108 43.992 L 98.955 45.111 C 99.422 45.686 99.889 46.262 100.619 46.94 L 105.571 53.862 C 104.825 55.353 103.777 56.672 102.144 58.007 C 101.559 58.025 101.07 57.97 101.07 57.97 L 101.071 57.97 Z"/>
        <path fill="#2d1919" d="M 78.127 34.693 C 77.702 35.124 77.454 35.32 77.12 35.772 C 75.28 35.98 73.569 35.988 71.431 35.99 C 70.435 34.205 69.866 32.425 69.143 30.329 C 70.78 29.58 72.571 29.147 74.681 28.857 L 78.629 31.937 C 78.719 32.788 78.49 33.596 78.127 34.693 Z"/>
        <path fill="#1a0f0e" d="M 98.911 44.743 C 95.913 44.741 92.87 44.372 89.421 43.917 C 89.272 43.379 89.528 42.927 89.893 42.237 C 93.523 40.674 96.938 39.75 98.911 44.743 Z"/>
        <path fill="#513732" d="M 70.151 21.34 C 71.144 20.439 72.278 19.853 73.706 19.145 C 75.691 21.072 76.777 23.151 74.143 25.695 C 72.749 24.544 71.521 23.099 70.151 21.34 Z"/>
        <path fill="#55382e" d="M 95.969 103.165 L 99.065 112.774 C 97.627 114.098 96.17 115.036 94.296 115.678 C 93.584 114.925 93.29 114.467 92.995 113.629 L 91.066 106.555 C 92.508 105.14 93.777 103.995 95.278 102.927 L 95.97 103.165 L 95.969 103.165 Z"/>
        <path fill="#edafa2" d="M 92.995 114.009 L 93.951 115.648 C 93.542 116.842 93.058 117.772 92.296 118.875 C 88.932 119.028 85.847 119.008 82.433 118.628 C 83.045 116.25 84.05 113.991 85.405 111.944 L 92.995 114.01 L 92.995 114.009 Z"/>
        <path fill="#f6d8c2" d="M 78.141 123.694 C 74.552 126.079 72.847 123.642 71.209 121.295 C 69.11 118.288 71.585 116.882 74.033 115.302 C 76.4 116.554 78.19 117.807 79.979 119.059 L 78.141 123.694 Z"/>
        <path fill="#ecae9b" d="M 80.315 119.037 C 78.189 117.806 76.4 116.553 74.328 115.139 C 74.044 114.509 74.041 114.04 74.398 113.118 C 78.115 111.522 81.306 108.206 85.033 111.878 L 82.051 118.614 C 81.547 118.979 81.099 118.998 80.316 119.037 L 80.315 119.037 Z"/>
        <path fill="#734f43" d="M 85.405 111.943 C 81.305 108.206 78.114 111.522 74.412 112.766 C 72.949 112.24 71.831 111.612 70.367 110.954 C 70.021 110.923 69.997 110.521 70.04 109.942 C 70.723 106.63 71.363 103.898 72.321 101.004 C 73.743 100.508 74.847 100.174 76.18 99.913 C 76.409 99.985 76.88 100.082 76.954 100.425 C 79.07 103.402 81.112 106.036 82.583 107.933 L 90.892 106.825 C 91.592 108.966 92.292 111.108 92.994 113.629 C 90.59 113.342 88.184 112.675 85.405 111.943 Z"/>
        <path fill="#794e3f" d="M 72.003 101.167 L 70.019 109.743 C 68.267 110.097 66.579 110.071 64.472 110.102 C 63.891 110.12 63.729 110.082 63.318 110.016 C 62.725 108.593 62.381 107.196 62.415 105.385 C 64.208 104.018 65.623 103.065 67.405 102.067 L 72.002 101.166 L 72.003 101.167 Z"/>
        <path fill="#fbbeab" d="M 61.011 77.369 C 62.116 77.3 63.216 77.608 64.767 78.314 L 73.004 80.996 C 73.001 81 73.009 80.994 73.06 81.351 C 74.85 85.205 72.533 86.868 70.27 88.976 C 68.162 90.94 66.729 93.63 64.614 96.002 L 59.006 97.001 C 58.716 96.855 58.47 96.654 58.284 95.875 C 59.609 92.951 60.775 90.46 62.26 88.176 C 64.34 84.978 64.884 82.199 61.005 80.002 L 61.012 77.371 L 61.011 77.369 Z"/>
        <path fill="#f8b4a2" d="M 60.654 80.052 C 64.883 82.198 64.339 84.976 62.259 88.175 C 60.774 90.459 59.608 92.95 58.155 95.672 C 57.202 95.752 56.394 95.509 55.294 95.133 C 55.045 91.264 55.087 87.528 55.062 83.398 C 56.765 82.038 58.534 81.071 60.653 80.052 L 60.654 80.052 Z"/>
        <path fill="#f7bfad" d="M 59.016 97.383 C 60.745 96.668 62.486 96.336 64.673 96.357 C 65.759 98.511 66.399 100.312 67.039 102.113 L 62.45 105.019 C 61.564 104.5 61.02 103.933 60.245 103.181 C 59.684 101.253 59.356 99.509 59.017 97.382 L 59.016 97.383 Z"/>
        <path fill="#e6b09c" d="M 99.696 72.063 C 100.684 72.844 101.253 73.602 101.923 74.634 L 101.992 79.571 C 100.531 80.571 99.075 81.148 97.154 81.582 C 95.117 79.944 93.545 78.449 92.135 76.669 L 95.072 72.06 L 99.696 72.062 L 99.696 72.063 Z"/>
        <path fill="#f8d9c4" d="M 94.7 71.889 C 94.146 73.502 93.222 74.944 91.801 76.727 C 89.284 76.649 87.262 76.229 85.054 75.575 L 82.996 73.04 C 86.774 72.599 90.551 72.158 94.7 71.889 Z"/>
        <path d="M 63.679 66.987 C 66.078 66.885 68.148 66.942 70.587 67.054 C 70.956 67.11 71.004 67.488 71.019 68.07 L 70.977 71.805 C 68.657 71.526 66.274 71.489 64.034 70.903 C 61.667 70.283 61.44 68.791 63.679 66.985 L 63.679 66.987 Z" fill="#3b2826"/>
        <path fill="#e6b09c" d="M 82.575 73.023 C 83.62 73.806 84.244 74.573 84.744 75.759 C 83.092 77.118 81.562 78.058 79.818 78.75 C 78.407 77.999 77.211 77.496 76.014 76.992 L 76.215 73.861 C 76.772 73.255 77.355 73.115 77.937 72.976 L 82.574 73.022 L 82.575 73.023 Z"/>
        <path d="M 100.819 58.165 C 101.072 57.97 101.561 58.025 101.807 58.033 C 102.518 58.672 102.983 59.304 103.731 60.051 C 103.649 63.405 102.549 65.679 98.322 64.134 C 98.86 62.113 99.713 60.237 100.82 58.165 L 100.819 58.165 Z" style="fill: rgb(250, 194, 176);"/>
        <path d="M 77.962 72.615 C 77.356 73.117 76.773 73.256 76.043 73.663 C 74.463 73.326 73.031 72.722 71.289 71.962 C 70.997 70.756 71.016 69.705 71.047 68.26 C 73.368 69.329 75.677 70.791 77.962 72.616 L 77.962 72.615 Z" fill="#513732"/>
        <path fill="#f9cab7" d="M 96.349 103.104 C 95.942 103.155 95.534 103.015 95.244 102.725 C 94.98 102.445 94.924 102.039 95.142 101.902 C 95.577 101.502 95.793 101.239 96.326 100.917 C 97.753 99.572 98.864 98.286 99.974 97 C 103.312 96.186 106.874 94.543 108.845 99.677 C 108.077 101.495 107.157 102.99 106.095 104.791 C 102.878 104.412 99.803 103.727 96.348 103.104 L 96.349 103.104 Z"/>
        <path fill="#ecad99" d="M 80.034 78.998 L 84.931 75.995 L 91.64 77.012 C 93.546 78.45 95.118 79.945 96.85 81.73 C 96.368 83.453 95.725 84.887 94.663 86.659 C 93.501 86.995 92.758 86.992 91.794 86.738 C 89.721 86.332 87.869 86.176 85.711 85.874 C 83.946 85.148 82.487 84.568 81.019 83.619 L 80.034 78.998 Z"/>
        <path fill="#f1aa9d" d="M 99.698 96.848 C 98.864 98.286 97.754 99.572 96.27 100.561 C 94.927 97.842 93.957 95.42 93.362 92.998 L 95.987 93.01 L 99.698 96.848 Z"/>
        <path fill="#f4b5a3" d="M 96.035 92.68 C 95.237 93.007 94.487 93.003 93.115 92.708 C 92.334 90.607 92.174 88.798 92.015 86.989 L 94.613 86.994 C 95.35 88.777 95.717 90.563 96.035 92.68 Z"/>
        <path fill="#f9cab7" d="M 79.819 78.75 C 80.369 80.394 80.727 82.096 80.885 83.822 C 80.553 84.653 80.302 84.855 79.7 84.858 L 73.009 80.994 C 73.009 80.994 73.001 81 73.003 80.622 L 72.999 77.998 L 75.682 77.002 C 77.212 77.497 78.408 78 79.819 78.751 L 79.819 78.75 Z"/>
        <path fill="#fac2b0" d="M 72.555 77.999 C 73.001 78.747 73.003 79.495 73.006 80.618 C 70.411 80.233 67.814 79.473 65.108 78.364 C 67.369 78.01 69.74 78.005 72.555 77.999 Z"/>
        <path fill="#d49185" d="M 94.924 102.039 C 94.924 102.039 94.981 102.445 95.013 102.648 L 91.065 106.556 C 88.4 107.158 85.908 107.49 82.583 107.933 L 77.25 100.385 C 77.67 99.978 77.868 99.954 78.47 99.952 C 84.178 98.524 89.42 97.507 93.963 101.954 C 94.141 102.128 94.597 102.017 94.924 102.039 Z"/>
        <path fill="#fac2b0" d="M 73.059 81.351 C 75.136 82.234 77.264 83.474 79.755 85.234 C 80.407 87.498 80.697 89.241 80.696 91.15 C 78.195 93.778 74.242 95.33 75.95 99.841 L 72.32 101.004 L 67.405 102.067 C 66.398 100.312 65.758 98.511 65.058 96.354 C 66.728 93.628 68.161 90.939 70.269 88.975 C 72.532 86.867 74.849 85.204 73.059 81.35 L 73.059 81.351 Z"/>
        <path fill="#f1aa9d" d="M 76.18 99.913 C 74.242 95.33 78.195 93.778 80.903 91.284 C 81.658 91.463 81.864 91.716 81.961 92.359 L 78.066 99.93 L 77.177 100.042 C 76.881 100.082 76.41 99.986 76.181 99.914 L 76.18 99.913 Z"/>
        <path fill="#fac2b0" d="M 78.47 99.952 C 79.346 97.521 80.627 95.113 82.307 92.295 L 86.016 86.02 L 91.793 86.737 L 92.739 92.707 L 95.953 100.62 C 95.793 101.239 95.577 101.502 95.142 101.902 C 94.597 102.017 94.14 102.127 93.962 101.953 C 89.419 97.506 84.177 98.524 78.469 99.951 L 78.47 99.952 Z"/>
        <path fill="#f4b5a3" d="M 85.71 85.873 C 84.913 87.976 83.811 89.931 82.362 91.949 C 81.864 91.715 81.659 91.462 81.194 91.118 C 80.698 89.24 80.408 87.497 80.062 85.378 C 80.302 84.856 80.553 84.654 80.894 84.192 C 82.487 84.567 83.945 85.147 85.71 85.873 Z"/>
        <path d="M 117.03 70.151 C 113.39 73.51 113.368 72.022 109.636 72.436 C 108.459 71.443 107.968 70.516 107.53 69.246 C 109.427 68.102 116.683 67.535 116.683 67.535 C 118.722 67.07 117.03 70.151 117.03 70.151 Z" style="fill: rgb(59, 40, 38);"/>
        <path d="M 61.016 76.993 C 61.016 76.993 61.668 70.285 64.035 70.905 C 66.275 71.491 68.658 71.528 71.289 71.962 C 73.031 72.722 74.463 73.326 76.069 74.13 C 76.167 75.217 76.092 76.105 75.682 77.002 C 74.565 77.34 73.782 77.669 72.555 77.999 C 69.74 78.005 67.368 78.01 64.657 77.965 C 63.216 77.608 62.116 77.301 61.016 76.993 Z" style="fill: rgb(143, 111, 95);"/>
        <path d="M 58.255 67.05 C 59.049 69.079 59.505 71.034 60.019 73.332 L 61.016 76.993 C 61.016 76.993 61.41 70.294 63.777 70.914 C 61.41 70.294 61.474 68.663 63.713 66.857 C 64.04 65.677 64.005 64.787 64.005 63.001 C 64.962 58.758 64.497 55.594 61.667 53 C 60.872 53.721 60.359 54.331 59.905 55.356 C 59.282 59.507 58.598 63.242 58.254 67.05 L 58.255 67.05 Z" fill="#f4cfbb"/>
        <path d="M 113.279 79.234 C 113.012 79.64 105.933 80.272 102.413 79.573 C 102.007 77.735 102.016 76.322 102.4 74.945 L 108.943 73.118 C 109.093 72.617 112.797 72.342 112.708 72.64 C 115.298 72.156 115.406 73.185 115.975 75.822 C 115.49 77.986 114.157 78.592 113.279 79.234 Z" style="fill: rgb(143, 111, 95);"/>
    </g>
</svg>