<svg xmlns="http://www.w3.org/2000/svg" viewBox="0 0 24 24">
    <path d="M 18.1 6.1 C 18.1 6.4 18 6.7 17.8 7 L 16.4 8.4 L 15.5 7.6 L 17.7 5.4 C 18 5.5 18.1 5.8 18.1 6.1 L 18.1 6.1 Z M 17.6 11.4 L 20.8 11.4 C 20.8 11.7 20.7 12 20.4 12.3 C 20.1 12.6 19.9 12.7 19.6 12.7 L 17.6 12.7 L 17.6 11.4 Z M 11.4 6.4 L 11.4 3.2 C 11.7 3.2 12 3.3 12.3 3.6 C 12.6 3.9 12.7 4.1 12.7 4.4 L 12.7 6.4 L 11.4 6.4 L 11.4 6.4 Z M 17.8 18.1 C 17.5 18.1 17.2 18 17 17.8 L 15.6 16.4 L 16.4 15.6 L 18.6 17.8 C 18.4 18 18.1 18.1 17.8 18.1 L 17.8 18.1 Z M 6.2 5.9 C 6.5 5.9 6.8 6 7 6.2 L 8.4 7.6 L 7.6 8.5 L 5.4 6.2 C 5.6 6 5.9 5.9 6.2 5.9 Z M 11.4 17.6 L 12.6 17.6 L 12.6 20.8 C 12.3 20.8 12 20.7 11.7 20.4 C 11.4 20.1 11.3 19.9 11.3 19.6 L 11.4 17.6 L 11.4 17.6 Z M 4.4 11.4 L 6.4 11.4 L 6.4 12.6 L 3.2 12.6 C 3.2 12.3 3.3 12 3.6 11.7 C 3.9 11.4 4.1 11.4 4.4 11.4 L 4.4 11.4 Z M 6.2 17 L 7.6 15.6 L 8.4 16.4 L 6.2 18.6 C 6 18.4 5.9 18.1 5.9 17.8 C 5.9 17.5 6 17.2 6.2 17 Z"/>
    <circle cx="12" cy="12" r="4"/>
</svg>